<svg width="18" height="14" viewBox="0 0 18 14" fill="none" xmlns="http://www.w3.org/2000/svg">
<path d="M13.9258 5.32104C13.7206 2.90643 11.6063 1 9 1C6.25793 1 4.03448 3.10261 4.03448 5.69565C4.03448 6.06087 4.08855 6.41148 4.17131 6.7527C2.4091 6.82261 1 8.18643 1 9.86957C1 11.5986 2.48193 13 4.31034 13H12.8621C15.1473 13 17 11.248 17 9.08696C17 7.27548 15.6924 5.76661 13.9258 5.32104ZM13.9258 5.32104C13.587 5.23548 13.2295 5.17391 12.862 5.17391C11.6361 5.17391 10.536 5.67791 9.77788 6.47826" stroke="#749FF6" stroke-linecap="round" stroke-linejoin="round"/>
</svg>
