<svg width="31" height="32" viewBox="0 0 31 32" fill="none" xmlns="http://www.w3.org/2000/svg">
<path d="M30.7259 5.33287C30.7259 7.89287 28.6741 9.98025 26.1577 9.98025C23.6413 9.98025 21.5895 7.89287 21.5895 5.33287C21.5895 2.77287 23.6413 0.685482 26.1577 0.685482C28.6741 0.685482 30.7259 2.77287 30.7259 5.33287ZM6.72363 19.9446C7.18819 19.7083 7.57532 19.4326 7.92374 19.0387C8.73672 18.2116 9.20128 17.1089 9.27871 15.9667C9.31742 15.4153 9.20128 14.9427 9.16257 14.3913C9.12386 13.8399 9.20128 13.2492 9.35614 12.6978C10.0143 10.4135 12.2983 8.99564 14.5824 9.38948C16.7504 9.74394 18.957 8.52302 19.7313 6.43564C20.4669 4.50579 19.8474 2.22148 18.2215 0.961175C16.6342 -0.299133 14.3502 -0.299133 12.6855 0.882405C11.7951 1.55194 11.1369 2.53656 10.866 3.63933C10.7498 4.19071 10.7111 4.7421 10.7885 5.29348C10.866 5.80548 10.9047 6.31748 10.866 6.86887C10.595 9.23194 8.58187 11.0436 6.25907 11.083C5.7558 11.083 5.25253 10.9649 4.71054 10.9255C4.16856 10.9255 3.62657 11.0043 3.08458 11.2012C2.03932 11.5556 1.14892 12.3433 0.606933 13.2886C-0.399613 15.0609 -0.12862 17.3846 1.26506 18.8812C2.65874 20.4566 4.90411 20.8504 6.72363 19.9446ZM13.6533 11.8313C13.2275 12.0676 12.8016 12.3433 12.4532 12.6978C11.6789 13.4855 11.1757 14.5882 11.1369 15.7304C11.0982 16.2424 11.2144 16.7544 11.2531 17.2664C11.2918 17.8178 11.2144 18.3692 11.0595 18.9206C10.4014 21.1261 8.15602 22.5439 5.94937 22.1501C3.82014 21.7956 1.6909 22.9772 0.916639 25.0646C0.181086 26.955 0.800499 29.1606 2.42646 30.4209C4.0137 31.6418 6.22036 31.6812 7.84632 30.4996C8.73672 29.8301 9.39485 28.8849 9.62713 27.7821C9.74327 27.2701 9.78198 26.6793 9.70456 26.1673C9.62713 25.6553 9.58842 25.1433 9.62713 24.6313C9.85941 22.3076 11.8338 20.5353 14.1179 20.5353C14.6211 20.5353 15.1244 20.6535 15.6277 20.6929C16.1697 20.6929 16.7117 20.6141 17.2149 20.4172C18.2215 20.0627 19.1119 19.3144 19.6539 18.3692C20.6604 16.6362 20.3894 14.3519 19.0345 12.8553C17.6408 11.3587 15.4341 10.9255 13.6533 11.8313Z" fill="white"/>
</svg>
