<svg width="26" height="27" viewBox="0 0 26 27" fill="none" xmlns="http://www.w3.org/2000/svg">
<path d="M25.9048 4.77804C25.9048 6.91137 24.1969 8.65086 22.1024 8.65086C20.0078 8.65086 18.3 6.91137 18.3 4.77804C18.3 2.64471 20.0078 0.905219 22.1024 0.905219C24.1969 0.905219 25.9048 2.64471 25.9048 4.77804ZM5.92603 16.9545C6.31271 16.7575 6.63495 16.5278 6.92496 16.1996C7.60166 15.5103 7.98835 14.5914 8.0528 13.6396C8.08502 13.1801 7.98835 12.7862 7.95613 12.3268C7.9239 11.8673 7.98835 11.375 8.11725 10.9155C8.66505 9.01189 10.5663 7.83035 12.4675 8.15855C14.272 8.45394 16.1087 7.4365 16.7532 5.69701C17.3655 4.08881 16.8499 2.18522 15.4965 1.13496C14.1753 0.0847068 12.2741 0.0847066 10.8885 1.06932C10.1473 1.62727 9.59954 2.44778 9.37397 3.36676C9.2773 3.82625 9.24508 4.28573 9.30952 4.74522C9.37397 5.17189 9.4062 5.59855 9.37397 6.05804C9.14841 8.02727 7.47277 9.53701 5.53934 9.56983C5.12043 9.56983 4.70152 9.47137 4.25039 9.43855C3.79926 9.43855 3.34813 9.50419 2.89699 9.6683C2.02695 9.96368 1.2858 10.6201 0.834672 11.4078C-0.00314653 12.8847 0.22242 14.8211 1.38248 16.0683C2.54253 17.3811 4.41151 17.7093 5.92603 16.9545ZM11.6941 10.1934C11.3396 10.3903 10.9852 10.6201 10.6951 10.9155C10.0507 11.5719 9.63176 12.4909 9.59954 13.4427C9.56731 13.8693 9.66399 14.296 9.69621 14.7227C9.72843 15.1821 9.66399 15.6416 9.53509 16.1011C8.98729 17.9391 7.11831 19.1206 5.28155 18.7924C3.50925 18.497 1.73694 19.4816 1.09246 21.2211C0.48021 22.7965 0.995791 24.6345 2.34919 25.6847C3.67036 26.7021 5.50712 26.735 6.86052 25.7503C7.60166 25.1924 8.14947 24.4047 8.34281 23.4857C8.43948 23.0591 8.47171 22.5668 8.40726 22.1401C8.34281 21.7134 8.31059 21.2868 8.34281 20.8601C8.53615 18.9237 10.1796 17.4468 12.0808 17.4468C12.4997 17.4468 12.9186 17.5452 13.3375 17.578C13.7886 17.578 14.2398 17.5124 14.6587 17.3483C15.4965 17.0529 16.2376 16.4293 16.6888 15.6416C17.5266 14.1975 17.301 12.2939 16.1732 11.0468C15.0131 9.79958 13.1764 9.43855 11.6941 10.1934Z" fill="#BDC4D1"/>
</svg>
